<svg width="137" height="67" viewBox="0 0 137 67" fill="none" xmlns="http://www.w3.org/2000/svg">
<path d="M32.638 33.1582L54.7866 20.3074C59.9584 17.2638 61.7574 10.613 58.7218 5.42763C55.6862 0.242259 49.0528 -1.56135 43.8807 1.48224L5.65479 23.5765L32.638 33.1582Z" fill="#EA4335"/>
<path d="M49.2778 66.074C52.9879 66.074 56.6981 64.1578 58.7218 60.6631C61.7574 55.4778 59.9587 48.827 54.7866 45.7834L16.5607 23.6893C11.3889 20.6457 4.75526 22.4493 1.71963 27.6347C-1.31564 32.8201 0.483015 39.4709 5.65477 42.5146L43.881 64.6086C45.5676 65.6233 47.4787 66.074 49.2778 66.074Z" fill="#4285F4"/>
<path d="M87.2791 66.074C89.0778 66.074 90.9893 65.6232 92.6755 64.6086L130.902 42.5145L104.256 32.7073L81.7699 45.6706C76.5982 48.7142 74.7991 55.3653 77.8348 60.5507C79.8588 64.1578 83.569 66.074 87.2791 66.074Z" fill="#FBBC04"/>
<path d="M125.506 43.98C129.216 43.98 132.926 42.0635 134.95 38.5691C137.985 33.3837 136.187 26.7329 131.015 23.6892L92.7887 1.59502C87.617 -1.44857 80.9837 0.355078 77.948 5.54044C74.9124 10.7258 76.7111 17.3766 81.8828 20.4202L120.109 42.5146C121.796 43.5289 123.707 43.98 125.506 43.98Z" fill="#34A853"/>
</svg>
